<svg xmlns="http://www.w3.org/2000/svg" viewBox="0 0 100 100">
<path d="M74.9,48.8 L53.5,38.1 M74.9,48.8 L59.2,28.0 M74.9,48.8 L70.4,25.3" fill="none" stroke="#AC2D31" stroke-width="8.8" stroke-linecap="round" stroke-linejoin="round"/>
<path d="M15.2,28.4C11.0,27.2 13.9,31.1 13.4,32.5C12.9,33.9 12.4,35.3 12.1,36.8C11.7,38.2 11.5,39.7 11.3,41.2C11.1,42.6 11.0,44.1 11.0,45.6C10.9,47.1 11.0,48.6 11.2,50.1C11.4,51.5 11.7,53.0 12.2,54.4C12.6,55.8 13.1,57.2 13.7,58.6C14.3,59.9 14.9,61.2 15.6,62.5C16.4,63.8 17.2,65.0 18.0,66.1C18.9,67.3 19.8,68.4 20.8,69.5C21.8,70.5 22.8,71.5 23.9,72.4C25.0,73.3 26.1,74.2 27.3,75.0C28.4,75.7 29.7,76.4 30.9,77.1C32.2,77.7 33.4,78.2 34.7,78.7C36.0,79.2 37.4,79.6 38.7,79.9C40.0,80.2 41.4,80.5 42.7,80.6C44.0,80.8 45.4,80.9 46.7,80.9C48.1,80.9 49.4,80.8 50.7,80.7C52.0,80.5 53.4,80.3 54.6,80.0C55.9,79.7 57.2,79.3 58.4,78.9C59.6,78.5 60.8,78.0 62.0,77.4C63.1,76.9 64.3,76.2 65.4,75.6C66.4,74.9 67.5,74.2 68.5,73.4C69.5,72.6 70.4,71.8 71.3,70.9C72.2,70.0 73.0,69.1 73.8,68.1C74.5,67.1 75.2,66.1 75.9,65.0C76.5,64.0 77.1,62.9 77.6,61.8C78.2,60.7 78.6,59.6 79.0,58.4C79.4,57.3 79.7,56.1 80.0,55.0C80.2,53.8 80.4,52.6 80.5,51.5C80.7,50.3 80.7,49.1 80.7,47.9C80.7,46.7 80.6,45.6 80.5,44.4C80.3,43.3 80.1,42.1 79.8,41.0C79.6,39.9 80.6,37.8 78.8,37.7C77.1,37.6 70.8,39.7 69.2,40.5C67.7,41.4 69.5,42.0 69.5,42.8C69.6,43.6 69.6,44.3 69.6,45.1C69.5,45.8 69.5,46.6 69.4,47.3C69.2,48.0 69.1,48.8 68.9,49.5C68.7,50.2 68.4,50.9 68.2,51.6C67.9,52.2 67.6,52.9 67.2,53.5C66.9,54.1 66.5,54.7 66.1,55.3C65.6,55.9 65.2,56.4 64.7,57.0C64.2,57.5 63.7,58.0 63.2,58.4C62.6,58.8 62.1,59.3 61.5,59.6C60.9,60.0 60.4,60.4 59.8,60.7C59.1,61.0 58.5,61.3 57.9,61.5C57.3,61.7 56.6,61.9 56.0,62.1C55.4,62.2 54.7,62.3 54.1,62.4C53.4,62.5 52.7,62.5 52.1,62.4C51.5,62.4 50.8,62.4 50.2,62.3C49.6,62.2 49.0,62.1 48.4,61.9C47.8,61.7 47.2,61.5 46.6,61.3C46.1,61.1 45.5,60.8 45.0,60.5C44.5,60.3 44.0,59.9 43.5,59.6C43.0,59.3 42.6,58.9 42.1,58.5C41.7,58.1 41.3,57.7 40.9,57.3C40.6,56.9 40.2,56.4 39.9,56.0C39.6,55.5 39.3,55.1 39.0,54.6C38.8,54.1 38.5,53.6 38.3,53.2C38.1,52.7 38.0,52.2 37.8,51.7C37.7,51.2 37.6,50.6 37.5,50.1C37.4,49.6 37.4,49.1 37.4,48.6C37.4,48.1 37.4,47.6 37.4,47.1C37.4,46.7 37.3,46.2 37.3,45.7C37.3,45.2 37.3,44.7 37.3,44.2C37.4,43.8 37.4,43.3 37.5,42.8C37.6,42.3 37.8,41.8 37.9,41.4C38.1,40.9 42.3,42.1 38.5,40.0C34.7,37.8 19.4,29.7 15.2,28.4Z" fill="#AC2D31"/>
<circle cx="26.8" cy="34.2" r="12.3" fill="#AC2D31"/>
<circle cx="22.0" cy="28.0" r="5.7" fill="#FAFAFA"/>
<circle cx="32.2" cy="27.3" r="5.2" fill="#FAFAFA"/>
<circle cx="23.5" cy="29.0" r="2.6" fill="#7C1E22"/>
<circle cx="33.5" cy="28.2" r="2.4" fill="#7C1E22"/>
<path d="M22.2,37.6 q 4.6,4.8 9.2,0.2" fill="none" stroke="#7C1E22" stroke-width="2.9" stroke-linecap="round" stroke-linejoin="round"/>
</svg>
